<svg width="24" height="24" viewBox="0 0 24 24" fill="none" xmlns="http://www.w3.org/2000/svg">
<g clip-path="url(#clip0_198_213)">
<path d="M23.9886 12.2244C23.9886 11.2412 23.9069 10.5236 23.7302 9.77954H12.2391V14.2175H18.9841C18.8482 15.3204 18.1138 16.9814 16.4819 18.0975L16.459 18.246L20.0923 20.9962L20.344 21.0208C22.6558 18.9346 23.9886 15.8652 23.9886 12.2244Z" fill="#4285F4"/>
<path d="M12.2391 23.9176C15.5436 23.9176 18.3177 22.8545 20.344 21.0209L16.4819 18.0976C15.4484 18.8018 14.0613 19.2934 12.2391 19.2934C9.00254 19.2934 6.25557 17.2074 5.27636 14.324L5.13282 14.3359L1.35489 17.1927L1.30548 17.3269C3.31811 21.2334 7.4522 23.9176 12.2391 23.9176Z" fill="#34A853"/>
<path d="M5.27634 14.324C5.01797 13.58 4.86844 12.7826 4.86844 11.9589C4.86844 11.135 5.01797 10.3378 5.26275 9.59366L5.25591 9.43519L1.43062 6.53247L1.30547 6.59064C0.475969 8.21174 0 10.0322 0 11.9589C0 13.8855 0.475969 15.7059 1.30547 17.327L5.27634 14.324Z" fill="#FBBC05"/>
<path d="M12.2391 4.62403C14.5373 4.62403 16.0875 5.59402 16.9715 6.40461L20.4256 3.10928C18.3042 1.1826 15.5436 0 12.2391 0C7.4522 0 3.31811 2.68406 1.30548 6.59056L5.26276 9.59359C6.25558 6.7102 9.00254 4.62403 12.2391 4.62403Z" fill="#EB4335"/>
</g>
<defs>
<clipPath id="clip0_198_213">
<rect width="24" height="24" fill="white"/>
</clipPath>
</defs>
</svg>
